<svg xmlns="http://www.w3.org/2000/svg" xmlns:xlink="http://www.w3.org/1999/xlink" id="Layer_1" x="0" y="0" version="1.1" viewBox="0 0 560 166" xml:space="preserve" style="enable-background:new 0 0 560 166"><style type="text/css">.st0{fill:#376db6}.st1{fill:#4ca2da}.st2{fill:#91d8f4}.st3{fill:#1e5397}</style><g><path d="M26.7,91.7l77.1-21.1l4.3,15.9L31,107.5L26.7,91.7z" class="st0"/><path d="M21.1,71.1l77.1-21.1l4.3,15.9L25.4,87L21.1,71.1z" class="st1"/><path d="M80.4,32.1L27.7,46.5c-6.8,1.9-10.8,9.1-8.9,16.1l1.1,4.1L97,45.6l-1.1-4.1C94,34.5,87.1,30.3,80.4,32.1z" class="st2"/><path d="M32.3,112.1l1.1,4.1c1.9,7,9,11.2,15.8,9.3l33-9l4.6,16.8L98.5,112l3.6-1c6.8-1.9,10.8-9.1,8.9-16.1l-1.1-4.1 L32.3,112.1z" class="st3"/></g><g><path d="M491.4,74l46,12.9l-2.7,9.5l-46-12.9L491.4,74z" class="st0"/><path d="M494.9,61.7l46,12.9l-2.7,9.5l-46-12.9L494.9,61.7z" class="st1"/><path d="M537.2,60l-31.4-8.8c-4.1-1.1-8.3,1.3-9.5,5.5l-0.7,2.5l46,12.9l0.7-2.5C543.5,65.4,541.2,61.1,537.2,60z" class="st2"/><path d="M488,86.2l-0.7,2.5c-1.2,4.2,1.2,8.5,5.3,9.6l19.7,5.5l-2.8,10l12.5-7.3l2.2,0.6c4.1,1.1,8.3-1.3,9.5-5.5 l0.7-2.5L488,86.2z" class="st3"/></g></svg>