<svg xmlns="http://www.w3.org/2000/svg" xmlns:ev="http://www.w3.org/2001/xml-events" xmlns:xlink="http://www.w3.org/1999/xlink" width="517.962" height="461.133" class="st11" color-interpolation-filters="sRGB" viewBox="0 0 388.472 345.85" xml:space="preserve"><style type="text/css">.st1,.st2{stroke-linecap:round;stroke-linejoin:round;stroke-width:.5}.st1{fill:#5b9bd5;stroke:#fff}.st2{stroke:#5592c9;stroke-dasharray:3.5,2.5}.st3{fill:#fff;font-family:Segoe UI;font-size:1.00001em;font-weight:700}.st4{fill:#5b9bd5;stroke-linecap:round;stroke-linejoin:round;stroke-width:.5}.st4,.st5,.st6{stroke:#5592c9}.st5{marker-end:url(#mrkr4-36);stroke-linecap:round;stroke-linejoin:round;stroke-width:.5}.st6{fill:#5592c9;fill-opacity:1;stroke-opacity:1;stroke-width:.13368983957219}.st7{fill:#fff;stroke:none;stroke-linecap:butt;stroke-width:7.2}.st8{fill:#41719d;font-family:Segoe UI;font-size:.666664em}.st9{marker-end:url(#mrkr3-44);stroke:#5592c9;stroke-dasharray:3.5,2.5;stroke-linecap:round;stroke-linejoin:round;stroke-width:.5}.st10{font-size:1em}.st11{fill:none;fill-rule:evenodd;font-size:12px;overflow:visible;stroke-linecap:square;stroke-miterlimit:3}</style><defs id="Markers"><g id="lend4"><path d="M 2 1 L 0 0 L 2 -1 L 2 1" style="stroke:none"/></g><marker id="mrkr4-36" class="st6" markerUnits="strokeWidth" orient="auto" overflow="visible" refX="-14.96"><use transform="scale(-7.48,-7.48)" xlink:href="#lend4"/></marker><g id="lend3"><path d="M 2 1 L 0 0 L 2 -1" style="stroke-linecap:round;stroke-linejoin:round;fill:none"/></g><marker id="mrkr3-44" class="st6" markerUnits="strokeWidth" orient="auto" overflow="visible"><use transform="scale(-7.48,-7.48)" xlink:href="#lend3"/></marker></defs><g><title>Page-1</title><g id="group46-1" transform="translate(18.25,-298.8)"><title>Actor lifeline</title><desc>Browser</desc><g id="shape47-2" transform="translate(19.8,5.68434E-14)"><title>Sheet.47</title><rect width="54" height="25.2" x="0" y="320.65" class="st1"/></g><g id="shape48-4" transform="translate(37.8,-28.8)"><title>Sheet.48</title><path d="M9 345.85 a0 0 0 1 1 0 0 a0 0 0 1 1 0 0 Z" class="st1"/></g><g id="shape49-6" transform="translate(31.2,280.8)"><title>Sheet.49</title></g><g id="shape50-8" transform="translate(392.65,345.85) rotate(90)"><title>Sheet.50</title><path d="M0 345.85 L262.8 345.85" class="st2"/></g><g id="shape46-11"><rect width="93.6" height="25.2" x="0" y="320.65" class="st1"/><text x="23.84" y="336.85" class="st3">Browser</text></g></g><g id="group52-14" transform="translate(204.156,-298.8)"><title>Object lifeline</title><desc>Sitecore</desc><g id="shape53-15" transform="translate(19.8,5.68434E-14)"><title>Sheet.53</title><rect width="54" height="25.2" x="0" y="320.65" class="st1"/></g><g id="shape54-17" transform="translate(37.8,-28.8)"><title>Sheet.54</title><path d="M9 345.85 a0 0 0 1 1 0 0 a0 0 0 1 1 0 0 Z" class="st1"/></g><g id="shape55-19" transform="translate(31.2,280.8)"><title>Sheet.55</title></g><g id="shape56-21" transform="translate(392.65,345.85) rotate(90)"><title>Sheet.56</title><path d="M0 345.85 L262.8 345.85" class="st2"/></g><g id="shape52-24"><rect width="93.6" height="25.2" x="0" y="320.65" class="st1"/><text x="23.97" y="336.85" class="st3">Sitecore</text></g></g><g id="shape65-27" transform="translate(-276.3,309.85) rotate(-90)"><title>Activation</title><rect width="244.8" height="9" x="0" y="336.85" class="st4"/></g><g id="shape67-29" transform="translate(-90.3937,309.85) rotate(-90)"><title>Activation.67</title><rect width="244.8" height="9" x="0" y="336.85" class="st4"/></g><g id="shape127-31" transform="translate(69.55,-271.8)"><title>Message.22</title><desc>get layout service data</desc><path d="M0 336.85 L169.43 336.85" class="st5"/><rect width="79.554" height="9.6" x="48.676" y="332.05" class="st7"/><text x="48.68" y="339.25" class="st8">get layout service data</text></g><g id="shape129-39" transform="translate(250.956,-235.8)"><title>Return Message.23</title><desc>layout data + form schema data</desc><path d="M0 336.85 L-181.41 336.85" class="st9"/><rect width="112.983" height="9.6" x="-147.195" y="332.05" class="st7"/><text x="-147.19" y="339.25" class="st8">layout data + form schema data</text></g><g id="shape130-47" transform="translate(60.55,-190.8)"><title>Self Message.24</title><desc>User fills out form</desc><path d="M9 345.85 L27 345.85 L27 363.85 L16.48 363.85" class="st5"/><rect width="62.929" height="9.6" x="32.651" y="350.95" class="st7"/><text x="32.65" y="358.15" class="st8">User fills out form</text></g><g id="shape131-54" transform="translate(69.55,-162.9)"><title>Message.22.131</title><desc>Post form data</desc><path d="M0 353.95 L169.43 355.67" class="st5"/><rect width="52.082" height="9.6" x="62.412" y="350.05" class="st7"/><text x="62.41" y="357.25" class="st8">Post form data</text></g><g id="shape132-61" transform="translate(246.456,-136.8)"><title>Self Message.24.132</title><desc>Execute submit action(s) (or save form step data)</desc><path d="M9 345.85 L27 345.85 L27 363.85 L16.48 363.85" class="st5"/><rect width="85.417" height="19.2" x="33.501" y="346.068" class="st7"/><text x="33.5" y="353.27" class="st8">Execute submit action(s)<tspan x="34.23" class="st10" dy="1.2em">(or save form step data)</tspan></text></g><g id="shape133-69" transform="translate(246.456,-109.8)"><title>Return Message.23.133</title><desc>Submit result (+ next form step schema, if multistep)</desc><path d="M0 354.85 L-176.91 354.85" class="st9"/><rect width="136.331" height="19.2" x="-156.618" y="345.25" class="st7"/><text x="-111.83" y="352.45" class="st8">Submit result<tspan x="-156.62" class="st10" dy="1.2em">(+ next form step schema, if multistep)</tspan></text></g><g id="shape137-77" transform="translate(60.55,-226.8)"><title>Self Message.24.137</title><desc>JS renders form schema to HTML</desc><path d="M9 345.85 L27 345.85 L27 363.85 L16.48 363.85" class="st5"/><rect width="116.468" height="9.6" x="32.882" y="351.85" class="st7"/><text x="32.88" y="359.05" class="st8">JS renders form schema to HTML</text></g><g id="shape138-84" transform="translate(60.55,-82.8)"><title>Self Message.138</title><desc>[multistep] JS renders next form</desc><path d="M9 345.85 L27 345.85 L27 363.85 L16.48 363.85" class="st5"/><rect width="112.214" height="9.6" x="35.009" y="351.85" class="st7"/><text x="35.01" y="359.05" class="st8">[multistep] JS renders next form</text></g><g id="shape139-91" transform="translate(69.55,-54.9)"><title>Message.139</title><desc>[multistep] Post form data...</desc><path d="M0 353.95 L169.43 355.67" class="st5"/><rect width="97.3" height="9.6" x="39.803" y="350.05" class="st7"/><text x="39.8" y="357.25" class="st8">[multistep] Post form data...</text></g></g></svg>