<svg xmlns="http://www.w3.org/2000/svg" width="500" height="600"><g><title>background</title><rect id="canvas_background" width="502" height="602" x="-1" y="-1" fill="none"/><g id="canvasGrid" width="100%" height="100%" x="0" y="0" display="none"><rect width="100%" height="100%" x="0" y="0" fill="url(#gridpattern)" stroke-width="0"/></g></g><g><title>Layer 1</title><rect id="svg_1" width="345" height="76" x="77.5" y="42.979" fill="#fff" stroke="#000" stroke-width="1.5"/><rect id="svg_2" width="345" height="76" x="77.5" y="197.059" fill="#fff" stroke="#000" stroke-width="1.5"/><text id="svg_4" x="89.75" y="88.979" fill="#000" fill-opacity="null" stroke="#000" stroke-opacity="null" stroke-width="0" font-family="Helvetica, Arial, sans-serif" font-size="20" text-anchor="start" xml:space="preserve">Page/Route Layout Definition (XML)</text><text id="svg_5" x="169.945" y="242.059" fill="#000" fill-opacity="null" stroke="#000" stroke-opacity="null" stroke-width="0" font-family="Helvetica, Arial, sans-serif" font-size="20" text-anchor="start" xml:space="preserve">Rendering Engine</text><path id="svg_8" fill="#000" stroke="#000" stroke-opacity="null" stroke-width="1.5" d="m235.000351,169.368485l13.99728,-13.997203l-13.99728,-13.997304l8.000154,-7.999291l21.999132,21.996595l-21.999132,22.003419" transform="rotate(90 250,155.37469482421878)"/><text id="svg_9" x="293.391" y="156" fill="#000" stroke="#000" stroke-opacity="null" stroke-width="0" font-family="Helvetica, Arial, sans-serif" font-size="15" text-anchor="start" xml:space="preserve">renderings w/ rules</text><rect id="svg_10" width="345" height="76" x="77.5" y="349.218" fill="#fff" stroke="#000" stroke-width="3"/><text id="svg_11" x="178.859" y="395.218" fill="#000" fill-opacity="null" stroke="#000" stroke-opacity="null" stroke-width="0" font-family="Helvetica, Arial, sans-serif" font-size="20" font-weight="bold" text-anchor="start" xml:space="preserve">Layout Service</text><path id="svg_12" fill="#000" stroke="#000" stroke-opacity="null" stroke-width="1.5" d="m235.000352,325.371679l13.99728,-13.99721l-13.99728,-13.9973l8.00015,-7.99929l21.99914,21.99659l-21.99914,22.00342" transform="rotate(90 249.99999999999997,311.3778686523438)"/><text id="svg_13" x="292.383" y="315.003" fill="#000" stroke="#000" stroke-opacity="null" stroke-width="0" font-family="Helvetica, Arial, sans-serif" font-size="15" text-anchor="start" xml:space="preserve">output renderings</text><rect id="svg_14" width="345" height="76" x="77.5" y="494.249" fill="#fff" stroke="#000" stroke-width="1.5"/><text id="svg_15" x="211.094" y="539.249" fill="#000" fill-opacity="null" stroke="#000" stroke-opacity="null" stroke-width="0" font-family="Helvetica, Arial, sans-serif" font-size="20" font-style="normal" font-weight="normal" text-anchor="start" xml:space="preserve">JSS App</text><path id="svg_16" fill="#000" stroke="#000" stroke-opacity="null" stroke-width="1.5" d="m235.000352,470.402716l13.99728,-13.99721l-13.99728,-13.9973l8.00015,-7.99929l21.99914,21.99659l-21.99914,22.00342" transform="rotate(90 249.99999999999997,456.40893554687506)"/><text id="svg_17" x="290.984" y="462.034" fill="#000" stroke="#000" stroke-opacity="null" stroke-width="0" font-family="Helvetica, Arial, sans-serif" font-size="15" text-anchor="start" xml:space="preserve">JSON Layout</text></g></svg>